<?xml version="1.0" encoding="utf-8"?>
<!-- Generator: Adobe Illustrator 23.0.4, SVG Export Plug-In . SVG Version: 6.00 Build 0)  -->
<svg version="1.1" id="Calque_1" xmlns="http://www.w3.org/2000/svg" xmlns:xlink="http://www.w3.org/1999/xlink" x="0px" y="0px"
	 viewBox="0 0 143.7 243" style="enable-background:new 0 0 143.7 243;" xml:space="preserve">
<style type="text/css">
	.st0{fill:#FFFFFF;}
</style>
<g>
	<path class="st0" d="M113.3,142.4c0.1,0,2.4,0,3.1,0c3,0,6.3-0.7,6.3-5.6v-9.5c0-4.2-2.5-5.7-6.3-5.7c-1.3,0-2.3,0-3.2,0
		c-0.8,0-0.9,0.3-0.9,0.8v19.1C112.3,142,112.4,142.4,113.3,142.4z"/>
	<polygon class="st0" points="67.5,124.7 63.4,138.7 71.6,138.7 	"/>
	<polygon class="st0" points="53.3,173.5 61.5,173.5 57.4,159.5 	"/>
</g>
<g id="Calque_3">
	<path class="st0" d="M140.7,0H3C1.3,0,0,1.3,0,3v206.6c0,1.7,1.3,3,3,3h137.7c1.7,0,3-1.3,3-3V3C143.7,1.3,142.4,0,140.7,0z
		 M51.1,89.3l-11.3,8.9l-8.3-2.5l-9,5.3L7.7,98.9v-0.5L29.9,83L51.1,89.3z M17.5,6c6.1,0,11,4.9,11,11s-4.9,11-11,11s-11-4.9-11-11
		S11.4,6,17.5,6z M42.3,183c0,0.5,0,0.5-0.6,0.5h-4c-1.1,0-1.1-0.2-1.1-0.7v-18.5c0-0.8-0.6-0.9-0.7-0.9c-0.3,0-0.6,0.2-0.8,0.6
		l-4.2,8.1c-0.4,1-0.5,1-1.1,1c-0.4,0-0.5-0.2-0.9-1l-5.5-10.7c-0.2-0.4-0.6-0.4-0.7-0.4c-0.4,0-0.8,0.4-0.8,0.9l-7.6,31.6l-0.1,0.2
		c-0.1,0.4-0.1,0.4-0.6,0.4H9.1l0,0c-0.3,0-0.8,0-0.9-0.2C8,193.6,8,193.4,8,193.3l9.3-39.1c0.1-0.6,0.2-0.8,1-0.8h4.2
		c0.5,0,0.7,0,1,0.5l5.9,10.1c0.3,0.6,1,0.6,1.4,0l5.7-10c0.1-0.1,0.3-0.5,1.2-0.5h4.2c0.3,0,0.4,0.1,0.4,0.1
		c0.1,0.1,0.1,0.4,0.1,0.8V183H42.3z M31.5,147.5c2.7,0,3.9-1.2,3.9-3.6v-2.8c0-0.3,0-1.3-1.2-1.3h-1.9c-0.1,0-0.2,0-0.2,0
		s0-0.1,0-0.3v-3.2c0-0.1,0-0.3,0-0.3H40c1.2,0,1.2,0,1.2,1v6.2c0,4.1-1.1,8.3-9.5,8.3c-7.1,0-10.3-2.8-10.3-8.9v-12.7
		c0-5.2,1.4-10,11.5-10c4.9,0,6.7,1.2,7.1,1.5c0,0.7-0.8,3.2-1.3,3.8c-0.9-0.4-2.2-0.9-5.2-0.9c-3.2,0-6.4,0.7-6.4,6.1v11.3
		C27.1,144.6,27.6,147.5,31.5,147.5z M45.2,149.7v-23.3c0-1,0.2-1.5,1.2-1.5h3.2c0.6,0,1.2,0.3,1.2,1.3c0,0.6,0,1.6,0,2.5
		c2-2.8,4.8-4.2,7.8-4.2c0.4,0,0.8,0,0.8,0.5l-0.1,3.1c-0.1,0.5-0.3,0.7-0.7,0.7c-1.3,0-2.9,0.3-4,1c-2.3,1.3-3.8,3.2-3.8,4.8v14.9
		c0,1.3-0.1,1.9-1,1.9h-3.1C45.5,151.5,45.2,151,45.2,149.7z M64.7,120c0.3-1,0.6-1.3,1.6-1.3h3.4c1,0,1.2,0.4,1.6,1.3l8.5,28
		c0.4,1.3-0.1,1.4-0.9,1.4h-3.3c-0.8,0-0.8-0.2-1-1.1l-1.8-5.9H62.3l-1.8,5.9c-0.3,0.9-0.4,1.1-1,1.1h-3c-0.5,0-0.7-0.1-0.3-1.4
		L64.7,120z M68.8,184.3h-3.3c-0.8,0-0.8-0.2-1-1.1l-1.8-5.9H52.2l-1.8,5.9c-0.3,0.9-0.4,1.1-1.1,1.1h-3c-0.6,0-0.7-0.1-0.3-1.4
		l8.5-28c0.3-1,0.6-1.3,1.6-1.3h3.4c1,0,1.2,0.4,1.6,1.3l8.5,28C70.1,184.2,69.6,184.3,68.8,184.3z M80.2,184.4
		c-4.9,0-7.5-1-8.5-1.6c-0.5-0.2-0.3-4.1,0.7-3.8s2.7,1.2,6.6,1.2c3.2,0,5.1-0.9,5.1-3.5c0-2-1.7-3.6-5-5.3
		c-3.8-1.9-7.1-3.9-7.1-7.9c0-4.8,4.7-7.1,9.7-7.1c3.7,0,6,0.5,6.7,0.8c0.5,0.2-0.3,3.8-1.2,3.7c-0.8-0.2-3.2-0.8-5.2-0.8
		c-2.9,0-4.5,1.1-4.5,3.2c0,1.5,2.1,2.8,4.7,4.2c4.7,2.5,7.6,4.8,7.6,9.4C89.7,183.2,84.7,184.4,80.2,184.4z M82.4,152.5V126
		c0-0.2,0-1.3,0.7-1.3h2.8c1.3,0,1.2,0.2,1.7,0.8l11.5,19.6c0.6,1,0.8,0.9,0.8-0.6v-27.4c0-0.6,0.1-1.3,0.6-1.3h3
		c0.7,0,0.8,0.4,0.8,1.3v35.1c0,1.1-0.1,1.5-0.9,1.5h-2.8c-0.7,0-1-0.2-1.4-1l-11.5-19.3c-0.6-1-0.9-1.2-0.9,0v18.8
		c0,1.1-0.1,1.4-0.9,1.4h-2.6C83,153.7,82.4,153.8,82.4,152.5z M100.4,184.4c-4.9,0-7.5-1-8.5-1.6c-0.5-0.2-0.3-4.1,0.7-3.8
		s2.7,1.2,6.6,1.2c3.2,0,5.1-0.9,5.1-3.5c0-2-1.7-3.6-5-5.3c-3.8-1.9-7.1-3.9-7.1-7.9c0-4.8,4.7-7.1,9.7-7.1c3.7,0,6,0.5,6.7,0.8
		c0.5,0.2-0.3,3.8-1.2,3.7c-0.8-0.2-3.2-0.8-5.2-0.8c-2.9,0-4.5,1.1-4.5,3.2c0,1.5,2.1,2.8,4.7,4.2c4.7,2.5,7.6,4.8,7.6,9.4
		C109.9,183.2,104.9,184.4,100.4,184.4z M107.7,144.7v-25.6c0-0.8,0.1-1.3,0.8-1.3c0,0,7.2,0,7.8,0c5.7,0,11,1.7,11,9.1v10.3
		c0,7.8-6,8.8-9.7,8.8c-1,0-8.9,0-8.9,0C108.1,146.1,107.7,145.7,107.7,144.7z M118.3,182.2c0,1.3,0,1.7-1,1.7h-3.5
		c-0.9,0-1-0.4-1-1.7v-23.4c0-1,0.2-1.5,1.2-1.5h3.1c1.2,0,1.2,0.4,1.2,1.5C118.3,158.8,118.3,182.2,118.3,182.2z M118.3,149.3v1.7
		c0,1.2-0.2,1.5-1,1.5H114c-1,0-1.2-0.2-1.2-1.6v-1.8c0-1.1,0.2-1.4,1.3-1.4h3.1C118.3,147.7,118.3,148.2,118.3,149.3z M135.3,160.7
		c0,0.6-0.1,1.1-1.1,1.1H131v20.5c0,1-0.3,1.6-1.1,1.6h-3c-0.7,0-1.4-0.3-1.4-1.3v-20.8h-2.6c-0.9,0-1.1-0.2-1.1-1v-1.7
		c0-0.7,0.2-1,0.8-1c0,0,2,0,2.5,0c-0.4-0.8-1-2-0.9-4.5c0-3.2,1.7-6.4,6.5-6.4c2.1,0,3.6,0.3,4.4,0.6c0.5,0.2-0.2,3.8-0.6,3.8
		c-1-0.2-1.2-0.3-2.3-0.3c-1.3,0-2.5,1-2.5,3c0,1.7,0.6,3,1.4,3.8h3.3c1,0,1.1,0.3,1.1,1v1.6L135.3,160.7L135.3,160.7z M136.5,113.4
		l-12.2-9l-17.6,10l-25.8-8.3l-14.2,5.6l-11-11l-20.6,14l-27.4-4.3V100l25.9,4l24.2-18.8l12.4,13.6L80.4,95l26.5,8l18.2-10l11.5,7.6
		v12.8H136.5z M136.5,99.4L125,91.8l-7,3.9l-1.3-0.8l-12.9,6.1l-23.4-7.1h-0.2L78,94.7l-8.1-6L65.1,92l-6.5-7.4l11.6-10l25.7,19.7
		l21.6-12.2l19.1,11.7L136.5,99.4L136.5,99.4z"/>
</g>
<g>
	<path class="st0" d="M97.2,223.5c-0.8,0-1,0.4-1,1.2v5.6c0,0.8,0.2,1.2,1,1.2c0.8,0,1-0.4,1-1.2v-5.6
		C98.2,223.9,97.9,223.5,97.2,223.5z"/>
	<polygon class="st0" points="78.5,224.2 77.8,228.9 79.3,228.9 78.5,224.2 	"/>
	<path class="st0" d="M36,223.5h-0.7v7.9H36c1,0,1.4-0.4,1.4-1.5v-4.8C37.4,223.9,37,223.5,36,223.5z"/>
	<path class="st0" d="M140.7,213.1H3c-1.7,0-3,1.3-3,3V240c0,1.7,1.3,3,3,3h137.7c1.7,0,3-1.3,3-3v-23.8
		C143.7,214.5,142.4,213.1,140.7,213.1z M39.3,229.6c0,2.2-1,3.3-3,3.3h-2.8v-11h2.8c1.9,0,3,1.1,3,3.3V229.6z M47,232.9h-5.2v-11h5
		v1.6h-3.2v2.8H46v1.6h-2.4v3.2H47V232.9z M51.4,233.1c-1.7,0-2.7-1.4-2.8-3l1.8-0.3c0.1,1.1,0.5,1.7,1.1,1.7c0.7,0,1.1-0.3,1.1-1
		c0-2.2-3.8-2.7-3.8-5.9c0-1.7,1.1-2.7,2.9-2.7c1.5,0,2.4,1.1,2.6,2.7l-1.8,0.2c-0.1-0.9-0.6-1.2-1-1.2c-0.6,0-0.9,0.4-0.9,1.1
		c0,1.9,3.8,2.8,3.8,5.7C54.4,232.1,53.2,233.1,51.4,233.1z M61.3,223.6h-1.8v9.3h-1.9v-9.3h-1.8V222h5.5V223.6z M65.1,232.9h-1.9
		v-11h1.9V232.9z M73.6,232.9H72l-2.4-6.8h0v6.8h-1.7v-11h1.7l2.3,6.3h0V222h1.7V232.9z M79.9,232.9l-0.3-2.4h-2.1l-0.3,2.4h-1.8
		l2-11h2.3l2,11H79.9z M87.7,223.6h-1.8v9.3H84v-9.3h-1.8V222h5.5V223.6z M91.6,232.9h-1.9v-11h1.9V232.9z M100,230.3
		c0,1.5-0.9,2.8-2.9,2.8s-2.9-1.3-2.9-2.8v-5.6c0-1.5,0.9-2.8,2.9-2.8s2.9,1.3,2.9,2.8V230.3z M108.3,232.9h-1.6l-2.4-6.8h0v6.8
		h-1.7v-11h1.7l2.3,6.3h0V222h1.7V232.9z"/>
</g>
</svg>
